<?xml version="1.0" encoding="UTF-8" standalone="no"?>
<!-- Created with Inkscape (http://www.inkscape.org/) -->

<svg
   width="145.957mm"
   height="136.685mm"
   viewBox="0 0 145.957 136.685"
   version="1.1"
   id="svg1"
   xml:space="preserve"
   inkscape:version="1.4.2 (f4327f4, 2025-05-13)"
   sodipodi:docname="First Draft.svg"
   xmlns:inkscape="http://www.inkscape.org/namespaces/inkscape"
   xmlns:sodipodi="http://sodipodi.sourceforge.net/DTD/sodipodi-0.dtd"
   xmlns="http://www.w3.org/2000/svg"
   xmlns:svg="http://www.w3.org/2000/svg"><sodipodi:namedview
     id="namedview1"
     pagecolor="#ffffff"
     bordercolor="#000000"
     borderopacity="0.25"
     inkscape:showpageshadow="2"
     inkscape:pageopacity="0.0"
     inkscape:pagecheckerboard="0"
     inkscape:deskcolor="#d1d1d1"
     inkscape:document-units="mm"
     inkscape:zoom="0.70710678"
     inkscape:cx="152.02796"
     inkscape:cy="419.31432"
     inkscape:window-width="1920"
     inkscape:window-height="1017"
     inkscape:window-x="-8"
     inkscape:window-y="-8"
     inkscape:window-maximized="1"
     inkscape:current-layer="layer1" /><defs
     id="defs1"><inkscape:path-effect
       effect="spiro"
       id="path-effect84"
       is_visible="true"
       lpeversion="1" /><inkscape:path-effect
       effect="spiro"
       id="path-effect83"
       is_visible="true"
       lpeversion="1" /></defs><g
     inkscape:label="Layer 1"
     inkscape:groupmode="layer"
     id="layer1"
     transform="translate(-29.202737,-70.242528)"><g
       id="g87"
       transform="translate(3.0002048,4.0000459)"><text
         xml:space="preserve"
         style="font-style:normal;font-variant:normal;font-weight:normal;font-stretch:normal;font-size:18.0621px;line-height:0;font-family:Sans;-inkscape-font-specification:'Sans, Normal';font-variant-ligatures:normal;font-variant-caps:normal;font-variant-numeric:normal;font-variant-east-asian:normal;text-align:start;letter-spacing:2.79656px;writing-mode:lr-tb;direction:ltr;text-anchor:start;fill:#0c5007;fill-opacity:1;stroke:none;stroke-width:0.632666;stroke-dasharray:none;stroke-opacity:1"
         x="28.068314"
         y="206.72926"
         id="text74"
         transform="scale(1.0404165,0.96115353)"><tspan
           sodipodi:role="line"
           id="tspan74"
           style="font-style:normal;font-variant:normal;font-weight:normal;font-stretch:normal;font-size:18.0621px;line-height:0;font-family:Sans;-inkscape-font-specification:'Sans, Normal';font-variant-ligatures:normal;font-variant-caps:normal;font-variant-numeric:normal;font-variant-east-asian:normal;letter-spacing:2.79656px;fill:#0c5007;fill-opacity:1;stroke:none;stroke-width:0.632666;stroke-dasharray:none;stroke-opacity:1"
           x="28.068314"
           y="206.72926">TRADESMEN</tspan></text><path
         style="font-weight:bold;font-size:14.1111px;font-family:Sans;-inkscape-font-specification:'Sans, Bold';fill:#49280c;fill-opacity:1;stroke:#49280c;stroke-width:1.33812;stroke-opacity:1"
         d="M 85.565206,173.09895 H 76.244565 L 60.323906,147.35383 v 25.74512 h -8.867201 v -37.50929 h 11.56263 l 13.678669,21.48786 v -21.48786 h 8.867202 z m 61.339894,-37.50929 -10.10158,37.50929 h -10.70611 l -6.72598,-24.43519 -6.54964,24.43519 H 102.11564 L 92.014082,135.58966 h 10.101558 l 5.76872,25.82069 6.9023,-25.82069 h 9.64812 l 6.57484,25.82069 6.04584,-25.82069 z"
         id="text80"
         aria-label="NW"
         sodipodi:nodetypes="ccccccccccccccccccccccccc" /><g
         id="g85"
         transform="matrix(3.6737828,0,0,3.7975337,-262.33822,-335.38811)"><path
           id="path75"
           style="fill:#124e05;fill-opacity:1;stroke:#ffffff;stroke-width:0.269427;stroke-dasharray:none;stroke-opacity:1"
           inkscape:transform-center-x="0.02642457"
           inkscape:transform-center-y="-1.9423888"
           d="m 93.043699,109.60857 -4.206704,4.82519 1.044789,0.004 -2.711066,3.10982 1.504293,0.005 -2.337547,2.68122 1.550069,0.005 -2.38332,2.73384 14.997417,0.0568 -2.337093,-2.75156 1.504068,0.005 -2.292439,-2.69881 1.459191,0.005 -2.658856,-3.13008 0.992359,0.004 z" /><path
           id="path76"
           style="fill:#124e05;fill-opacity:1;stroke:#ffffff;stroke-width:0.269427;stroke-dasharray:none;stroke-opacity:1"
           inkscape:transform-center-x="0.026419598"
           inkscape:transform-center-y="-1.942396"
           d="m 103.85119,109.64968 -4.206676,4.82518 1.044776,0.004 -2.711068,3.1098 1.504299,0.005 -2.337549,2.68123 1.550076,0.005 -2.383324,2.73385 14.997416,0.0568 -2.3371,-2.7516 1.50406,0.005 -2.29243,-2.69882 1.45919,0.005 -2.65887,-3.13009 0.99235,0.004 z" /><path
           id="path5-1"
           style="fill:#124e05;fill-opacity:1;stroke:#ffffff;stroke-width:0.300937;stroke-dasharray:none;stroke-opacity:1"
           inkscape:transform-center-x="0.025725762"
           inkscape:transform-center-y="-1.8020331"
           d="m 98.477243,107.06759 -4.351816,5.8191 1.080831,0.005 -2.804589,3.75039 1.556184,0.007 -2.418179,3.23352 1.603538,0.007 -2.465535,3.29698 15.514773,0.0685 -2.41773,-3.31837 1.55595,0.007 -2.37151,-3.25474 1.50952,0.007 -2.75057,-3.77483 1.02657,0.004 z" /><path
           id="path80-8-8"
           style="fill:#ffffff;stroke:#ffffff;stroke-width:0.0880374"
           d="m 104.97197,111.79236 -0.91946,-0.31486 -0.20409,0.71562 -0.20409,-0.72146 -0.91792,0.33712 1.11616,-1.33674 z"
           sodipodi:nodetypes="ccccccc" /><path
           id="path81"
           style="fill:#ffffff;stroke:#ffffff;stroke-width:0.144839"
           d="m 100.07278,110.35014 -1.342121,-0.58384 -0.297906,1.32697 -0.297907,-1.33779 -1.339871,0.62511 1.629238,-2.4787 z"
           sodipodi:nodetypes="ccccccc" /><path
           id="path82"
           style="fill:#ffffff;stroke:#ffffff;stroke-width:0.0880374"
           d="m 94.107517,111.70967 -0.91946,-0.31486 -0.20409,0.71562 -0.20409,-0.72146 -0.91792,0.33712 1.11616,-1.33674 z"
           sodipodi:nodetypes="ccccccc" /></g><path
         style="fill:#0000ff;fill-opacity:1;stroke:#dc6f00;stroke-width:3.16615;stroke-dasharray:none;stroke-opacity:1"
         d="M 36.252243,180.62301 H 99.18088"
         id="path84" /><path
         style="fill:#0c5007;fill-opacity:1;stroke:#006fd3;stroke-width:3.16615;stroke-dasharray:none;stroke-opacity:1"
         d="M 99.18088,180.62301 H 162.1095"
         id="path85" /></g></g></svg>
